<svg fill="#FAB005" xmlns="http://www.w3.org/2000/svg"  viewBox="0 0 68 68" width="68px" height="68px"><path d="M 8.3007812 2 C 5.1007812 2 2.5996094 4.4992187 2.5996094 7.6992188 L 2.5996094 48.699219 C 2.5996094 51.799219 5.1007812 54.400391 8.3007812 54.400391 L 39.300781 54.400391 C 40.000781 60.900391 45.600781 66 52.300781 66 C 59.600781 66 65.400391 59.900391 65.400391 52.900391 C 65.400391 48.400391 63.099609 44.4 59.599609 42 L 59.599609 7.6992188 C 59.599609 4.4992187 57.000391 2 53.900391 2 L 8.3007812 2 z M 9.6992188 6.5996094 C 10.799219 6.5996094 11.699219 7.4996094 11.699219 8.5996094 C 11.699219 9.6996094 10.799219 10.599609 9.6992188 10.599609 C 8.5992188 10.599609 7.6992188 9.6996094 7.6992188 8.5996094 C 7.6992188 7.4996094 8.5992188 6.5996094 9.6992188 6.5996094 z M 15.699219 6.5996094 C 16.799219 6.5996094 17.699219 7.4996094 17.699219 8.5996094 C 17.699219 9.6996094 16.799219 10.599609 15.699219 10.599609 C 14.599219 10.599609 13.699219 9.6996094 13.699219 8.5996094 C 13.699219 7.4996094 14.599219 6.5996094 15.699219 6.5996094 z M 21.599609 6.5996094 C 22.799609 6.5996094 23.599609 7.4996094 23.599609 8.5996094 C 23.599609 9.6996094 22.699609 10.599609 21.599609 10.599609 C 20.499609 10.599609 19.599609 9.6996094 19.599609 8.5996094 C 19.599609 7.4996094 20.499609 6.5996094 21.599609 6.5996094 z M 53.585938 7.5898438 C 54.016602 7.6267578 54.400391 8.0746094 54.400391 8.5996094 C 54.400391 9.1996094 53.900391 9.5996094 53.400391 9.5996094 L 30.900391 9.5996094 C 30.300391 9.5996094 29.900391 9.0996094 29.900391 8.5996094 C 29.900391 8.0996094 30.400391 7.5996094 30.900391 7.5996094 L 53.400391 7.5996094 C 53.462891 7.5871094 53.524414 7.5845703 53.585938 7.5898438 z M 4.5 15.099609 L 57.599609 15.099609 L 57.599609 40.900391 C 55.999609 40.200391 54.200781 39.800781 52.300781 39.800781 C 45.500781 39.800781 39.499219 45.300391 39.199219 52.400391 L 8.1992188 52.400391 C 6.1992188 52.400391 4.5 50.699219 4.5 48.699219 L 4.5 15.099609 z M 22.5 19.099609 C 20.9 19.099609 19.7 20.499219 20 22.199219 L 13.199219 27.800781 C 12.799219 27.600781 12.4 27.5 12 27.5 C 10.6 27.5 9.5 28.6 9.5 30 C 9.5 31.4 10.6 32.599609 12 32.599609 C 13.4 32.599609 14.5 31.499609 14.5 30.099609 C 14.5 29.799609 14.500391 29.600391 14.400391 29.400391 L 21.099609 23.900391 C 21.499609 24.200391 21.900391 24.300781 22.400391 24.300781 C 22.900391 24.300781 23.299609 24.2 23.599609 24 L 30.5 30.400391 C 30.4 30.700391 30.300781 31.100391 30.300781 31.400391 C 30.300781 32.800391 31.400781 33.900391 32.800781 33.900391 C 34.200781 33.900391 35.300781 32.800391 35.300781 31.400391 C 35.300781 30.000391 34.200781 28.900391 32.800781 28.900391 C 32.500781 28.900391 32.200391 28.999609 31.900391 29.099609 L 24.800781 22.5 C 25.000781 22 25 21.799609 25 21.599609 C 25 20.199609 23.9 19.099609 22.5 19.099609 z M 38.900391 19.400391 C 38.400391 19.400391 37.900391 19.800391 37.900391 20.400391 C 37.900391 21.000391 38.400391 21.400391 38.900391 21.400391 L 52.5 21.400391 C 53 21.400391 53.5 21.000391 53.5 20.400391 C 53.5 19.900391 53.1 19.400391 52.5 19.400391 L 38.900391 19.400391 z M 38.900391 25.300781 C 38.400391 25.300781 37.900391 25.700781 37.900391 26.300781 C 37.900391 26.800781 38.300391 27.300781 38.900391 27.300781 L 52.5 27.300781 C 53 27.200781 53.5 26.800781 53.5 26.300781 C 53.5 25.800781 53.1 25.300781 52.5 25.300781 L 38.900391 25.300781 z M 19.599609 29.800781 C 19.099609 29.800781 18.599609 30.200781 18.599609 30.800781 L 18.599609 47 C 18.599609 47.5 18.999609 48 19.599609 48 L 25.400391 48 C 25.900391 48 26.400391 47.6 26.400391 47 L 26.400391 30.699219 C 26.400391 30.199219 26.000391 29.800781 25.400391 29.800781 L 19.599609 29.800781 z M 9.0996094 36.099609 C 8.5996094 36.099609 8.0996094 36.499609 8.0996094 37.099609 L 8.0996094 47 C 8.0996094 47.5 8.4996094 48 9.0996094 48 L 14.900391 48 C 15.400391 48 15.900391 47.6 15.900391 47 L 15.900391 37.199219 C 15.900391 36.599219 15.400391 36.099609 14.900391 36.099609 L 9.0996094 36.099609 z M 30.199219 38.5 C 29.699219 38.5 29.199219 38.9 29.199219 39.5 L 29.199219 47 C 29.199219 47.5 29.599219 48 30.199219 48 L 36 48 C 36.5 48 37 47.6 37 47 L 37 39.5 C 37 39 36.5 38.5 36 38.5 L 30.199219 38.5 z M 51.300781 41.800781 L 51.300781 52.400391 C 51.300781 52.500391 51.000781 54 52.300781 54 L 56 54 L 63.400391 54 C 62.800391 59.6 58.100781 64 52.300781 64 C 46.200781 64 41.299219 59.000781 41.199219 53.300781 C 40.899219 47.700781 45.200781 42.300781 51.300781 41.800781 z"/></svg>